<svg width="256" height="256" viewBox="0 0 256 256" fill="none" xmlns="http://www.w3.org/2000/svg">
<rect width="100%" height="100%" rx="28" fill="#F7F7F7"/>
<path d="M146.498 183.416C149.076 185.993 151.653 188.055 154.746 189.86L169.695 174.91C166.602 173.364 163.767 171.559 161.19 169.24C158.612 166.662 156.55 163.569 155.004 160.218C153.457 156.868 152.684 153.001 152.426 149.393V107.638C152.426 103.771 153.2 99.9052 154.746 96.5545C156.293 93.2038 158.355 90.1108 160.932 87.5333C163.509 84.9558 166.602 82.8938 170.211 81.3473C173.819 79.8009 177.428 79.0276 181.552 79.0276C185.418 79.0276 189.284 79.8009 192.635 81.3473C195.986 82.8938 199.079 84.9558 201.656 87.5333C204.234 90.1108 206.296 93.2038 207.842 96.5545C209.389 99.9052 210.162 103.771 210.162 107.638V134.444L230.524 114.081V107.638C230.524 100.936 229.235 94.4925 226.658 88.3065C224.08 82.3783 220.472 76.9656 216.09 72.5839C211.708 68.2022 206.553 64.8514 200.625 62.2739C194.697 59.6965 188.253 58.4077 181.552 58.4077C174.85 58.4077 168.407 59.6965 162.478 62.2739C156.55 64.8514 151.138 68.2022 146.756 72.8416C142.374 77.4811 138.766 82.6361 136.188 88.5643C133.611 94.4925 132.322 100.936 132.322 107.895V149.135C132.322 155.837 133.611 162.023 136.188 167.951C138.766 173.621 142.116 178.776 146.498 183.416Z" fill="#262626"/>
<path d="M120.981 90.3687C118.661 84.4405 115.053 78.77 110.156 74.1306C105.258 68.9756 99.8457 65.3671 93.6598 62.7896C87.4738 60.4699 81.2878 59.1812 74.8441 59.1812C68.4004 59.1812 62.2144 60.4699 56.0285 62.7896C49.8425 65.1094 44.4298 68.9756 39.5326 74.1306C34.6353 79.0278 31.0268 84.4405 28.7071 90.3687C26.3874 96.297 25.0986 102.741 25.0986 108.927C25.0986 115.113 26.3874 121.556 28.7071 127.742C31.0268 133.928 34.6353 139.341 39.5326 144.238C41.079 145.785 43.141 147.331 44.9453 148.878L59.8947 133.928C57.8327 132.897 56.0285 131.609 54.2242 129.547C51.1312 126.711 49.0692 123.618 47.5228 120.01C46.234 116.401 45.4608 112.793 45.4608 109.184C45.4608 105.576 46.234 101.967 47.5228 98.3589C48.8115 94.7505 51.1312 91.6575 54.2242 88.8222C57.0595 85.7293 60.1524 83.6673 63.7609 82.1208C67.3694 80.832 70.9779 80.0588 74.5864 80.0588C78.1948 80.0588 82.0611 80.832 85.6695 82.1208C89.278 83.4095 92.6288 85.7293 95.464 88.8222C98.557 91.6575 100.619 94.7505 102.165 98.3589C103.454 101.967 104.227 105.576 104.227 109.184C104.227 112.793 103.454 116.659 102.165 120.01C100.877 123.618 98.557 126.711 95.464 129.547L57.0595 167.951L27.6761 197.592H56.8017L94.9485 159.445L110.413 144.238C115.311 139.341 118.919 133.928 121.239 127.742C123.559 121.556 124.847 115.37 124.847 108.927C124.59 102.483 123.559 96.297 120.981 90.3687Z" fill="#262626"/>
</svg>
