<?xml version="1.0" encoding="utf-8"?>
<!-- Generator: Adobe Illustrator 15.0.0, SVG Export Plug-In . SVG Version: 6.00 Build 0)  -->
<!DOCTYPE svg PUBLIC "-//W3C//DTD SVG 1.1//EN" "http://www.w3.org/Graphics/SVG/1.1/DTD/svg11.dtd">
<svg version="1.1" xmlns="http://www.w3.org/2000/svg" xmlns:xlink="http://www.w3.org/1999/xlink" x="0px" y="0px"
	 width="828.667px" height="345.333px" viewBox="0 0 828.667 345.333" enable-background="new 0 0 828.667 345.333"
	 xml:space="preserve">
<g id="Background_xA0_Image_1_" display="none">
	
		<image display="inline" overflow="visible" width="1200" height="1200" id="Background_xA0_Image" xlink:href="1D206B8F.jpg"  transform="matrix(1 0 0 1 -230.6665 -285.3335)">
	</image>
</g>
<g id="Shape_52_1_" enable-background="new    ">
	<g id="Shape_52">
		<g>
			<polygon fill-rule="evenodd" clip-rule="evenodd" fill="#D0E4F2" points="556.333,127.667 554.333,152.667 550.333,156.667 
				547.333,166.667 546.333,189.667 557.333,200.667 			"/>
		</g>
	</g>
</g>
<g id="Shape_44_1_" enable-background="new    ">
	<g id="Shape_44">
		<g>
			<polygon fill-rule="evenodd" clip-rule="evenodd" fill="#4B89BB" points="358.333,129.667 362.333,130.667 363.333,18.667 			"/>
		</g>
	</g>
</g>
<g id="Shape_45_1_" enable-background="new    ">
	<g id="Shape_45">
	</g>
</g>
<g id="Shape_46_1_" enable-background="new    ">
	<g id="Shape_46">
		<g>
			<polygon fill-rule="evenodd" clip-rule="evenodd" fill="#4D8BBD" points="370.333,40.667 368.333,132.667 374.333,133.667 			"/>
		</g>
	</g>
</g>
<g id="_x3C_Type_x3E_">
</g>
<g id="Shape_47_1_" enable-background="new    ">
	<g id="Shape_47">
		<g>
			<polygon fill-rule="evenodd" clip-rule="evenodd" fill="#2980B9" points="371.333,51.667 371.333,133.667 375.333,133.667 			"/>
		</g>
	</g>
</g>
<g id="Shape_48_1_" enable-background="new    ">
	<g id="Shape_48">
	</g>
</g>
<g id="Shape_50_1_" enable-background="new    ">
	<g id="Shape_50">
		<g>
			<polygon fill-rule="evenodd" clip-rule="evenodd" fill="#4C8ABB" points="361.333,115.667 361.333,121.667 369.333,121.667 
				369.333,113.667 			"/>
		</g>
	</g>
</g>
<g id="Shape_51_1_" enable-background="new    ">
	<g id="Shape_51">
		<g>
			<polygon fill-rule="evenodd" clip-rule="evenodd" fill="#D0E4F2" points="545.333,120.667 542.333,134.667 542.333,142.667 
				538.333,145.667 536.333,166.667 529.333,177.667 546.333,188.667 			"/>
		</g>
	</g>
</g>
<g id="Shape_49_1_" enable-background="new    ">
	<g id="Shape_49">
		<g>
			<rect x="363.333" y="118.667" fill-rule="evenodd" clip-rule="evenodd" fill="#3684BD" width="5" height="3"/>
		</g>
	</g>
</g>
<g id="Shape_43_1_" enable-background="new    ">
	<g id="Shape_43">
		<g>
			<polygon fill-rule="evenodd" clip-rule="evenodd" fill="#2980B9" points="361.333,72.667 357.333,131.667 363.333,133.667 			"/>
		</g>
	</g>
</g>
<g id="Shape_34_1_" enable-background="new    ">
	<g id="Shape_34">
		<g>
			<polygon fill-rule="evenodd" clip-rule="evenodd" fill="#D0E4F2" points="489.333,207.667 469.333,206.667 603.333,326.667 
				696.333,330.667 			"/>
		</g>
	</g>
</g>
<g id="Shape_35_1_" enable-background="new    ">
	<g id="Shape_35">
		<g>
			<polygon fill-rule="evenodd" clip-rule="evenodd" fill="#D0E4F2" points="551.333,223.667 743.333,329.667 768.333,331.667 			
				"/>
		</g>
	</g>
</g>
<g id="Shape_41_1_" enable-background="new    ">
	<g id="Shape_41">
		<g>
			<polygon fill-rule="evenodd" clip-rule="evenodd" fill="#D0E4F2" points="577.333,218.667 581.333,225.667 811.333,331.667 
				821.333,331.667 			"/>
		</g>
	</g>
</g>
<g id="Shape_42_1_" enable-background="new    ">
</g>
<g id="Shape_10_1_" enable-background="new    ">
	<g id="Shape_10">
		<g>
			<polygon fill-rule="evenodd" clip-rule="evenodd" fill="#5DADE2" points="104.833,328.667 115.333,330.167 314.333,213.667 
				340.333,191.667 			"/>
		</g>
	</g>
</g>
<g id="Shape_38_1_" enable-background="new    ">
	<g id="Shape_38">
		<g>
			<path fill-rule="evenodd" clip-rule="evenodd" fill="#3486BC" d="M318.333,160.667c0,0-7.5,0.5-4,10s12,26,12,26h8l13-11l10-1
				l5,9l23-2l2-10l9.5,0.5l3.5,9.5l27,1l5-13h9l13,12l12,0.5l6-9l7,1.5l22,9l16.5-21.5c0,0-57.983-14.506-96.5-15.5
				C357.793,155.026,318.333,160.667,318.333,160.667z M529.333,176.667v4l4,10l9-7L529.333,176.667z"/>
		</g>
	</g>
</g>
<g id="Shape_36_1_" enable-background="new    ">
</g>
<g id="Small_Brin_Shadow_Corner_1_" enable-background="new    ">
	<g id="Small_Brin_Shadow_Corner">
		<g>
			<path fill-rule="evenodd" clip-rule="evenodd" fill="#3486BC" d="M285.833,150.167c2,11,12,16,12,16s6,0,6-2s1-28,1-28
				S283.833,139.167,285.833,150.167z"/>
		</g>
	</g>
</g>
<g id="Small_Brim_Shadow_1_" enable-background="new    ">
	<g id="Small_Brim_Shadow">
		<g>
			<path fill-rule="evenodd" clip-rule="evenodd" fill="#3486BC" d="M410.833,133.167c-65.622-5.769-95,1-95,1l-0.5,13.5l9.5,13
				c0,0,47.5-3.5,80.5-2s98,11,98,11l6-6C509.333,163.667,473.875,138.708,410.833,133.167z"/>
		</g>
	</g>
</g>
<g id="Shape_54_1_" enable-background="new    ">
	<g id="Shape_54">
		<g>
			<path fill-rule="evenodd" clip-rule="evenodd" fill="#D0E4F2" d="M467.333,160.667c-15.706-1.757-37-3-37-3s37.059,4.051,45,6
				s30,6,30,6l2-2C507.333,167.667,483.04,162.423,467.333,160.667z"/>
		</g>
	</g>
</g>
<g id="Small_upper_ribs_1_">
	<g id="Shape_25">
		<g>
			<polygon fill-rule="evenodd" clip-rule="evenodd" fill="#5DADE2" points="339.333,146.167 332.833,159.667 339.833,158.667 
				343.833,145.667 			"/>
		</g>
	</g>
	<g id="Shape_26">
		<g>
			<polygon fill-rule="evenodd" clip-rule="evenodd" fill="#5DADE2" points="364.833,142.667 360.833,157.667 367.333,157.167 
				369.833,143.667 			"/>
		</g>
	</g>
	<g id="Shape_27">
		<g>
			<polygon fill-rule="evenodd" clip-rule="evenodd" fill="#5DADE2" points="396.833,142.667 391.333,142.667 390.333,155.667 
				397.833,155.667 			"/>
		</g>
	</g>
	<g id="Shape_28">
		<g>
			<polygon fill-rule="evenodd" clip-rule="evenodd" fill="#5DADE2" points="427.333,145.167 421.333,144.667 422.333,155.667 
				429.333,156.667 			"/>
		</g>
	</g>
	<g id="Shape_29">
		<g>
			<polygon fill-rule="evenodd" clip-rule="evenodd" fill="#5DADE2" points="461.833,149.167 457.333,149.167 459.333,159.167 
				465.333,160.167 			"/>
		</g>
	</g>
	<g id="Shape_32">
		<g>
			<polygon fill-rule="evenodd" clip-rule="evenodd" fill="#2980B9" points="344.333,146.667 339.833,159.167 346.333,158.167 
				347.333,151.167 			"/>
		</g>
	</g>
	<g id="Shape_33">
		<g>
			<polygon fill-rule="evenodd" clip-rule="evenodd" fill="#2980B9" points="370.333,143.667 367.333,156.667 371.333,156.667 
				373.333,149.667 			"/>
		</g>
	</g>
</g>
<g id="Shape_31_1_" enable-background="new    ">
</g>
<g id="Shape_24_1_" enable-background="new    ">
</g>
<g id="Shape_20_1_" enable-background="new    ">
</g>
<g id="Shape_2_1_" enable-background="new    ">
	<g id="Shape_2">
		<g>
			<polygon fill-rule="evenodd" clip-rule="evenodd" fill="#2980B9" points="292.333,168.667 281.333,154.667 279.833,131.667 
				274.333,112.667 275.833,180.667 264.333,206.167 8.833,333.167 46.833,331.167 146.333,281.667 290.333,196.667 
				278.333,173.667 			"/>
		</g>
	</g>
</g>
<g id="Shape_3_1_" enable-background="new    ">
	<g id="Shape_3">
		<g>
			<path fill-rule="evenodd" clip-rule="evenodd" fill="#2980B9" d="M326.833,195.667c0,0-7.5-18.5-11-25s0.5-8.5,0.5-8.5l11.5-2
				l-11.5-13l-0.5-26l-2.5-2.5l-3.5-19.5l2.5,64.5l-12.5,34l-226.5,132l32-0.5c0,0,209.7-120.027,217-124.5c4.668-2.86,15-10,15-10
				L326.833,195.667z"/>
		</g>
	</g>
</g>
<g id="Shape_6_1_" enable-background="new    ">
	<g id="Shape_6">
		<g>
			<polygon fill-rule="evenodd" clip-rule="evenodd" fill="#2980B9" points="359.333,183.667 188.333,328.667 218.333,326.667 
				363.333,194.167 			"/>
		</g>
	</g>
</g>
<g id="Shape_7_1_" enable-background="new    ">
	<g id="Shape_7">
		<g>
			<polygon fill-rule="evenodd" clip-rule="evenodd" fill="#2980B9" points="397.333,180.667 384.833,325.167 388.333,324.667 
				400.333,191.667 			"/>
		</g>
	</g>
</g>
<g id="Shape_8_1_" enable-background="new    ">
	<g id="Shape_8">
		<g>
			<polygon fill-rule="evenodd" clip-rule="evenodd" fill="#5DADE2" points="449.333,186.667 442.333,179.667 431.333,179.667 
				427.333,189.667 399.833,190.667 387.833,324.667 407.333,325.167 411.333,200.667 438.333,201.167 437.333,187.167 			"/>
		</g>
	</g>
</g>
<g id="Shape_9_1_" enable-background="new    ">
	<g id="Shape_9">
		<g>
			<polygon fill-rule="evenodd" clip-rule="evenodd" fill="#5DADE2" points="363.833,192.667 216.833,327.167 236.833,327.167 
				368.833,199.667 384.833,198.667 385.833,190.667 			"/>
		</g>
	</g>
</g>
<g id="Shape_11_1_" enable-background="new    ">
	<g id="Shape_11">
		<g>
			<path fill-rule="evenodd" clip-rule="evenodd" fill="#5DADE2" d="M502.333,194.667l-21-12l-10.5-0.5l-4.5,9.5h-12l15.5,15.5
				l24.5,4.5c0,0-3-15.5-4-17.5S502.333,194.667,502.333,194.667z"/>
		</g>
	</g>
</g>
<g id="Shape_12_1_" enable-background="new    ">
	<g id="Shape_12">
		<g>
			<polygon fill-rule="evenodd" clip-rule="evenodd" fill="#3486BC" points="541.833,208.167 535.333,202.667 525.333,177.667 
				516.833,171.667 500.833,193.167 552.333,224.667 			"/>
		</g>
	</g>
</g>
<g id="Shape_13_1_" enable-background="new    ">
	<g id="Shape_13">
		<g>
			<polygon fill-rule="evenodd" clip-rule="evenodd" fill="#3486BC" points="575.333,217.667 556.333,208.667 541.833,182.667 
				532.333,189.667 536.333,202.667 581.333,224.667 			"/>
		</g>
	</g>
</g>
<g id="Shape_14_1_" enable-background="new    ">
	<g id="Shape_14">
		<g>
			<polygon fill-rule="evenodd" clip-rule="evenodd" fill="#2980B9" points="559.333,200.167 546.333,191.667 555.333,208.667 
				564.833,212.667 			"/>
		</g>
	</g>
</g>
<g id="Shape_15_1_" enable-background="new    ">
	<g id="Shape_15">
		<g>
			<polygon fill-rule="evenodd" clip-rule="evenodd" fill="#2980B9" points="529.333,178.167 525.833,108.167 524.833,177.667 
				534.333,205.167 539.333,205.167 			"/>
		</g>
	</g>
</g>
<g id="Shape_16_1_" enable-background="new    ">
	<g id="Shape_16">
		<g>
			<polygon fill-rule="evenodd" clip-rule="evenodd" fill="#2980B9" points="549.333,189.167 545.833,122.167 545.833,189.667 
				559.333,209.667 			"/>
		</g>
	</g>
</g>
<g id="Shape_17_1_" enable-background="new    ">
	<g id="Shape_17">
		<g>
			<polygon fill-rule="evenodd" clip-rule="evenodd" fill="#2980B9" points="556.333,127.167 557.833,198.667 560.333,203.667 			
				"/>
		</g>
	</g>
</g>
<g id="Shape_53_1_" enable-background="new    ">
	<g id="Shape_53">
		<g>
			<path fill-rule="evenodd" clip-rule="evenodd" fill="#D0E4F2" d="M523.333,107.667l-1,17l-4,5l-1,21l-15,19
				c0,0,0.427,0.092,1.131,0.242c3.33,0.714,12.869,2.758,12.869,2.758l9,6v-72L523.333,107.667z"/>
		</g>
	</g>
</g>
<g id="Shape_39_1_" enable-background="new    ">
	<g id="Shape_39">
		<g>
			<polygon fill-rule="evenodd" clip-rule="evenodd" fill="#3486BC" points="277.333,172.667 290.333,197.667 303.333,164.667 			
				"/>
		</g>
	</g>
</g>
<g id="Shape_40_1_" enable-background="new    ">
	<g id="Shape_40">
		<g>
			<path fill-rule="evenodd" clip-rule="evenodd" fill="#3486BC" d="M252.833,189.167c-7,7,5.5,16,5.5,16l12-27
				C270.333,178.167,259.833,182.167,252.833,189.167z"/>
		</g>
	</g>
</g>
<g id="Layer_4_xA0_Image_1_">
	
		<image overflow="visible" width="1087" height="100" id="Layer_4_xA0_Image" xlink:href="1D206B8D.png"  transform="matrix(1 0 0 1 -182.6665 323.6665)">
	</image>
</g>
</svg>
