<?xml version="1.0" encoding="utf-8"?>
<!-- Generator: Adobe Illustrator 18.1.1, SVG Export Plug-In . SVG Version: 6.00 Build 0)  -->
<svg version="1.1" id="Layer_1" xmlns="http://www.w3.org/2000/svg" xmlns:xlink="http://www.w3.org/1999/xlink" x="0px" y="0px"
	 width="255px" height="75.4px" viewBox="0 0 275 95.4" style="enable-background:new 0 0 255 75.4;" xml:space="preserve">
<style type="text/css">
	.st0{fill:#0E3050;}
</style>
<rect width="100%" height="100%" rx="4" fill="#F7F7F7"/>
<g transform="translate(10 10)">
	<g>
		<path class="st0" d="M4.9,10.7C4.7,9.7,3.6,8.9,2.7,8.9H0V1.5h23.1v7.5h-4.9l6,26.4h0.1l8.3-33.8h9.8l8.2,33.8h0.1L56,14
			c0.9-3.4,0.4-5-2.6-5h-2V1.5h20.5v7.5h-2.1c-1.1,0-2.3,0.9-2.7,2.1L56.8,51.2H42.9l-7-28.4h-0.1l-7,28.4H14.9L4.9,10.7z"/>
		<path class="st0" d="M69.6,26.6c0-16.6,9.4-25.8,24.7-25.8c3.6,0,6.5,0.4,8.1,0.6h9.5v16.3h-8.8l-1.4-7.2c-1.3-0.5-3.5-0.9-6-0.9
			c-6.9,0-11.8,4.6-11.8,16.4c0,11.3,3.3,17.3,10.5,17.3c2.5,0,3.8-0.2,5.3-0.6V34h-4.3v-7.2h20.7v7.3h-1.4c-1,0-2,1.3-2,2.1v15
			h-6.9c0,0-0.6-1.5-2-1.5c-2.6,1.3-6,2.1-10.3,2.1C78,51.9,69.6,43,69.6,26.6"/>
		<path class="st0" d="M120.6,32.6V11c0-0.9-1-2.1-2-2.1h-2.3V1.5h23.2v7.5h-5.3v24.4c0,7.5,3.1,9.9,8.7,9.9c5.7,0,8.7-2.3,8.7-9.9
			V8.9h-5.3V1.5h19.6v7.5h-2.3c-0.9,0-2,1.2-2,2.1v21.6c0,12.6-6.5,19.2-20.3,19.2C127.7,51.8,120.6,45.2,120.6,32.6"/>
		<path class="st0" d="M197.4,34.1c-3.6,0-6.6-3-6.6-6.6s3-6.6,6.6-6.6c1,0,1.9,0.2,2.8,0.6c-0.4-0.1-0.9-0.2-1.4-0.2
			c-2.6,0-4.7,2.1-4.7,4.7c0,2.6,2.1,4.7,4.7,4.7c2.6,0,4.7-2.1,4.7-4.7c0-0.6-0.1-1.2-0.4-1.8c0.6,1,0.9,2.1,0.9,3.3
			C204,31.1,201,34.1,197.4,34.1 M235.8,25.9c0-0.3,0-0.7-0.1-1c0.3,0.8,0.5,1.6,0.5,2.5c0,3.6-3,6.6-6.6,6.6c-3.6,0-6.6-3-6.6-6.6
			s3-6.6,6.6-6.6c0.9,0,1.7,0.2,2.5,0.5c-0.3-0.1-0.6-0.1-0.9-0.1c-2.6,0-4.7,2.1-4.7,4.7c0,2.6,2.1,4.7,4.7,4.7
			C233.7,30.6,235.8,28.5,235.8,25.9 M245.5,14.7l-4.1,3.4c0,0,0,0,0,0c2.2,2.6,3.4,6,3.4,9.4c0,8.2-6.6,14.8-14.8,14.8
			c-3.8,0-7.4-1.5-10.2-4.1v-6.1c1.8,3.7,5.5,6.2,9.8,6.2c6,0,10.9-4.9,10.9-10.9c0-4.4-2.7-8.2-6.5-9.9c0,0,0.1,0,0.1-0.1
			c2.2-1.1,3.6-2,3.6-2L255,1.3c-4.1-1.2-9.6-1.6-14.5-0.9c-6.5,0.9-12.1,3.3-12.1,3.3c-5.3-2.2-8.5-2.9-15-3c-6.5,0.1-9.7,0.7-15,3
			c0,0-5.6-2.4-12.1-3.3c-5-0.7-10.5-0.3-14.5,0.9L189,15.5c0,0,1.4,1,3.6,2c0.1,0,0.2,0.1,0.2,0.1c-3.8,1.7-6.4,5.5-6.4,9.9
			c0,6,4.9,10.9,10.9,10.9c4.1,0,7.7-2.3,9.5-5.7v-8.9v-1.5c0,0,0,0,0,0c0-0.1,0-0.1,0-0.2c0,0,0,0,0,0c0-1.8,1.5-3.2,3.2-3.2
			c1.8,0,3.2,1.5,3.2,3.2c0,0,0,0,0,0h0v2.5v22.7l-6.3-6.2l-1.2-1.3c-2,2-4.5,2.4-8.2,2.4c-8.2,0-14.8-6.6-14.8-14.8
			c0-4,0.8-6.6,2.9-9l-4.1-3.4c-2.9,3.3-4.2,7.2-4.2,12.4c0,11.1,9,20.1,20.1,20.1c1.7,0,3.5-0.1,5.3-0.4c2.7,2.4,10.7,9.6,10.7,9.6
			l11-9.9c1.7,0.5,3.4,0.7,5.2,0.7c11.1,0,20.1-9,20.1-20.1C250.1,22.8,248.5,18.3,245.5,14.7C245.5,14.7,245.5,14.7,245.5,14.7"/>
	</g>
	<g>
		<path class="st0" d="M8.2,64.3c-0.1-0.3-0.4-0.6-0.7-0.6H7.2v-1.2h4.6l0.1,1.2h-1.6l2.1,8.8h0.1l2.7-10h1.7l2.7,10h0l1.9-7.6
			c0.3-0.8,0.1-1.2-0.7-1.2h-0.7v-1.2h4.3v1.2h-0.3c-0.3,0-0.7,0.3-0.8,0.7l-2.9,10.9h-2.3l-2.4-9.1h0l-2.5,9.1H11L8.2,64.3z"/>
		<path class="st0" d="M24,74.2h0.5c0.2,0,0.4-0.2,0.4-0.4v-6c0-0.2-0.2-0.4-0.4-0.4H24v-1.1h7.1v2.6h-1.2l-0.2-1.4h-2.9v2.7h1.3
			l0.1-1h1.2v3.2h-1.2l-0.1-1h-1.3v2.8h3l0.2-1.5h1.3v2.7H24V74.2z"/>
		<path class="st0" d="M34.3,75.2h-1.5v-2.7h1.4l0.2,1.4c0.3,0.1,0.7,0.2,1.3,0.2c1.1,0,1.6-0.5,1.6-1.3c0-1-1.1-1.2-2.3-1.5
			c-1.2-0.3-1.9-1-1.9-2.5c0-1.7,1.2-2.6,3.1-2.6c0.6,0,1.1,0.1,1.4,0.1h1.4v2.4h-1.3l-0.2-1.2c-0.3-0.1-0.6-0.2-1.2-0.2
			c-0.9,0-1.5,0.4-1.5,1.2c0,0.9,0.9,1.1,2,1.4c1.6,0.4,2.4,1,2.4,2.6c0,1.8-1.2,2.8-3.3,2.8C35.1,75.3,34.6,75.3,34.3,75.2z"/>
		<path class="st0" d="M41.9,74.2h0.6c0.2,0,0.4-0.2,0.4-0.4v-6.3h-1.4l-0.1,1.9H40v-3h7.7v3h-1.2l-0.2-1.9h-1.4v6.3
			c0,0.2,0.2,0.4,0.4,0.4h0.6v1.1h-3.9V74.2z"/>
		<path class="st0" d="M49,74.2h0.5c0.2,0,0.4-0.2,0.4-0.4v-6c0-0.2-0.2-0.4-0.4-0.4H49v-1.1h7.1v2.6H55l-0.2-1.4h-2.9v2.7h1.3
			l0.1-1h1.2v3.2h-1.2l-0.1-1h-1.3v2.8h3l0.2-1.5h1.3v2.7H49V74.2z"/>
		<path class="st0" d="M60.5,71.4v2.8h1.1v1.1h-4v-1.1h0.5c0.2,0,0.4-0.2,0.4-0.4v-6c0-0.2-0.2-0.4-0.4-0.4h-0.5v-1.1h3.9
			c2.2,0,3.6,0.8,3.6,2.5c0,1.2-0.7,1.8-2,2v0.1c1,0.2,1.4,0.6,1.8,2.1l0.2,0.9c0.1,0.2,0.2,0.3,0.3,0.3h0.4v1.1h-2.5l-0.4-2.4
			c-0.1-1.1-0.5-1.4-1.5-1.4H60.5z M60.5,70.4h1c1.3,0,1.6-0.6,1.6-1.5c0-0.9-0.3-1.5-1.6-1.5h-1V70.4z"/>
		<path class="st0" d="M67,74.2h0.5c0.2,0,0.4-0.2,0.4-0.4v-6c0-0.2-0.2-0.4-0.4-0.4H67v-1.1h2.9l3.6,5.7h0v-4.6h-1v-1.1h3.3v1.1
			h-0.5c-0.2,0-0.4,0.2-0.4,0.4v7.5h-1.7L69.3,69h0v5.2h1v1.1H67V74.2z"/>
		<path class="st0" d="M80.5,68.9c0-4.2,2.6-6.5,6.2-6.5c1.4,0,2.1,0.3,2.5,0.5c0.1,0,0.3-0.1,0.3-0.3h1.3v3.8h-1.4l-0.2-1.6
			c-0.6-0.5-1.4-0.9-2.4-0.9c-2.3,0-4,1.5-4,5c0,3.4,1.3,5.2,3.8,5.2c1.1,0,1.8-0.3,2.4-0.6v-2.9h-1.5v-1.2h4.7v1.2h-0.5
			c-0.3,0-0.6,0.3-0.6,0.6v4.1h-1.2c0-0.2-0.1-0.5-0.5-0.5c-0.6,0.2-1.4,0.7-2.9,0.7C82.8,75.4,80.5,73.1,80.5,68.9z"/>
		<path class="st0" d="M92.6,70.7c0-3,2-4.6,4.4-4.6c2.4,0,4.4,1.6,4.4,4.6c0,3-2,4.6-4.4,4.6C94.6,75.3,92.6,73.7,92.6,70.7z
			 M99.3,70.8c0-2.2-1-3.3-2.3-3.3c-1.4,0-2.3,1.1-2.3,3.3c0,2.2,1,3.3,2.3,3.3C98.3,74,99.3,73,99.3,70.8z"/>
		<path class="st0" d="M102.2,67.7c-0.1-0.2-0.2-0.3-0.4-0.3h-0.3v-1.1h3.7v1.1h-1.1l2,6h0l1.7-5.1c0.2-0.6,0.1-0.9-0.4-0.9H107
			v-1.1h3.4v1.1h-0.3c-0.2,0-0.4,0.2-0.5,0.4l-2.7,7.5h-2L102.2,67.7z"/>
		<path class="st0" d="M110.9,74.2h0.5c0.2,0,0.4-0.2,0.4-0.4v-6c0-0.2-0.2-0.4-0.4-0.4h-0.5v-1.1h7.1v2.6h-1.2l-0.2-1.4h-2.9v2.7
			h1.3l0.1-1h1.2v3.2h-1.2l-0.1-1h-1.3v2.8h3l0.2-1.5h1.3v2.7h-7.3V74.2z"/>
		<path class="st0" d="M122.4,71.4v2.8h1.1v1.1h-4v-1.1h0.5c0.2,0,0.4-0.2,0.4-0.4v-6c0-0.2-0.2-0.4-0.4-0.4h-0.5v-1.1h3.9
			c2.2,0,3.6,0.8,3.6,2.5c0,1.2-0.7,1.8-2,2v0.1c1,0.2,1.4,0.6,1.8,2.1l0.2,0.9c0.1,0.2,0.2,0.3,0.3,0.3h0.4v1.1h-2.5l-0.4-2.4
			c-0.1-1.1-0.5-1.4-1.5-1.4H122.4z M122.4,70.4h1c1.3,0,1.6-0.6,1.6-1.5c0-0.9-0.3-1.5-1.6-1.5h-1V70.4z"/>
		<path class="st0" d="M128.8,74.2h0.5c0.2,0,0.4-0.2,0.4-0.4v-6c0-0.2-0.2-0.4-0.4-0.4h-0.5v-1.1h2.9l3.6,5.7h0v-4.6h-1v-1.1h3.3
			v1.1h-0.5c-0.2,0-0.4,0.2-0.4,0.4v7.5h-1.7l-3.9-6.2h0v5.2h1v1.1h-3.3V74.2z"/>
		<path class="st0" d="M138.3,70.7c0-3,2-4.6,4.4-4.6c2.4,0,4.4,1.6,4.4,4.6c0,3-2,4.6-4.4,4.6C140.3,75.3,138.3,73.7,138.3,70.7z
			 M145,70.8c0-2.2-1-3.3-2.3-3.3c-1.4,0-2.3,1.1-2.3,3.3c0,2.2,1,3.3,2.3,3.3C144,74,145,73,145,70.8z"/>
		<path class="st0" d="M150.6,71.4v2.8h1.1v1.1h-4v-1.1h0.5c0.2,0,0.4-0.2,0.4-0.4v-6c0-0.2-0.2-0.4-0.4-0.4h-0.5v-1.1h3.9
			c2.2,0,3.6,0.8,3.6,2.5c0,1.2-0.7,1.8-2,2v0.1c1,0.2,1.4,0.6,1.8,2.1l0.2,0.9c0.1,0.2,0.2,0.3,0.3,0.3h0.4v1.1h-2.5l-0.4-2.4
			c-0.1-1.1-0.5-1.4-1.5-1.4H150.6z M150.6,70.4h1c1.3,0,1.6-0.6,1.6-1.5c0-0.9-0.3-1.5-1.6-1.5h-1V70.4z"/>
		<path class="st0" d="M158.4,75.2h-1.5v-2.7h1.4l0.2,1.4c0.3,0.1,0.7,0.2,1.3,0.2c1.1,0,1.6-0.5,1.6-1.3c0-1-1.1-1.2-2.3-1.5
			c-1.2-0.3-1.9-1-1.9-2.5c0-1.7,1.2-2.6,3.1-2.6c0.6,0,1.1,0.1,1.4,0.1h1.4v2.4h-1.3l-0.2-1.2c-0.3-0.1-0.6-0.2-1.2-0.2
			c-0.9,0-1.5,0.4-1.5,1.2c0,0.9,0.9,1.1,2,1.4c1.6,0.4,2.4,1,2.4,2.6c0,1.8-1.2,2.8-3.3,2.8C159.2,75.3,158.8,75.3,158.4,75.2z"/>
		<path class="st0" d="M169.2,70.6v-6.3c0-0.3-0.3-0.6-0.6-0.6h-0.7v-1.2h5v1.2h-1.6v7c0,2.6,1.3,3.2,3.1,3.2c1.8,0,3.1-0.6,3.1-3.2
			v-7h-1.6v-1.2h4.5v1.2h-0.7c-0.3,0-0.6,0.3-0.6,0.6v6.3c0,3.2-1.7,4.8-4.9,4.8C171.1,75.4,169.2,73.9,169.2,70.6z"/>
		<path class="st0" d="M180.6,74.2h0.5c0.2,0,0.4-0.2,0.4-0.4v-6c0-0.2-0.2-0.4-0.4-0.4h-0.5v-1.1h2.9L187,72h0v-4.6h-1v-1.1h3.3
			v1.1h-0.5c-0.2,0-0.4,0.2-0.4,0.4v7.5h-1.7L183,69h0v5.2h1v1.1h-3.3V74.2z"/>
		<path class="st0" d="M190.7,74.2h0.6c0.2,0,0.4-0.2,0.4-0.4v-6c0-0.2-0.2-0.4-0.4-0.4h-0.6v-1.1h3.9v1.1H194
			c-0.2,0-0.4,0.2-0.4,0.4v6c0,0.2,0.2,0.4,0.4,0.4h0.6v1.1h-3.9V74.2z"/>
		<path class="st0" d="M195.9,67.7c-0.1-0.2-0.2-0.3-0.4-0.3h-0.3v-1.1h3.7v1.1h-1.1l2,6h0l1.7-5.1c0.2-0.6,0.1-0.9-0.4-0.9h-0.5
			v-1.1h3.4v1.1h-0.3c-0.2,0-0.4,0.2-0.5,0.4l-2.7,7.5h-2L195.9,67.7z"/>
		<path class="st0" d="M204.5,74.2h0.5c0.2,0,0.4-0.2,0.4-0.4v-6c0-0.2-0.2-0.4-0.4-0.4h-0.5v-1.1h7.1v2.6h-1.2l-0.2-1.4h-2.9v2.7
			h1.3l0.1-1h1.2v3.2h-1.2l-0.1-1h-1.3v2.8h3l0.2-1.5h1.3v2.7h-7.3V74.2z"/>
		<path class="st0" d="M216.1,71.4v2.8h1.1v1.1h-4v-1.1h0.5c0.2,0,0.4-0.2,0.4-0.4v-6c0-0.2-0.2-0.4-0.4-0.4h-0.5v-1.1h3.9
			c2.2,0,3.6,0.8,3.6,2.5c0,1.2-0.7,1.8-2,2v0.1c1,0.2,1.4,0.6,1.8,2.1l0.2,0.9c0.1,0.2,0.2,0.3,0.3,0.3h0.4v1.1h-2.5l-0.4-2.4
			c-0.1-1.1-0.5-1.4-1.5-1.4H216.1z M216.1,70.4h1c1.3,0,1.6-0.6,1.6-1.5c0-0.9-0.3-1.5-1.6-1.5h-1V70.4z"/>
		<path class="st0" d="M223.9,75.2h-1.5v-2.7h1.4l0.2,1.4c0.3,0.1,0.7,0.2,1.3,0.2c1.1,0,1.6-0.5,1.6-1.3c0-1-1.1-1.2-2.3-1.5
			c-1.2-0.3-1.9-1-1.9-2.5c0-1.7,1.2-2.6,3.1-2.6c0.6,0,1.1,0.1,1.4,0.1h1.4v2.4H227l-0.2-1.2c-0.3-0.1-0.6-0.2-1.2-0.2
			c-0.9,0-1.5,0.4-1.5,1.2c0,0.9,0.9,1.1,2,1.4c1.6,0.4,2.4,1,2.4,2.6c0,1.8-1.2,2.8-3.3,2.8C224.7,75.3,224.2,75.3,223.9,75.2z"/>
		<path class="st0" d="M229.7,74.2h0.6c0.2,0,0.4-0.2,0.4-0.4v-6c0-0.2-0.2-0.4-0.4-0.4h-0.6v-1.1h3.9v1.1H233
			c-0.2,0-0.4,0.2-0.4,0.4v6c0,0.2,0.2,0.4,0.4,0.4h0.6v1.1h-3.9V74.2z"/>
		<path class="st0" d="M236.8,74.2h0.6c0.2,0,0.4-0.2,0.4-0.4v-6.3h-1.4l-0.1,1.9H235v-3h7.7v3h-1.2l-0.2-1.9h-1.4v6.3
			c0,0.2,0.2,0.4,0.4,0.4h0.6v1.1h-3.9V74.2z"/>
		<path class="st0" d="M245.9,74.2h0.6c0.2,0,0.4-0.2,0.4-0.4v-2.2l-2.5-3.9c-0.1-0.2-0.3-0.3-0.4-0.3h-0.3v-1.1h3.7v1.1h-1l1.8,3h0
			l1.3-2.1c0.3-0.6,0.1-0.9-0.4-0.9h-0.4v-1.1h3.3v1.1h-0.2c-0.2,0-0.4,0.1-0.5,0.3l-2.3,3.8v2.3c0,0.2,0.2,0.4,0.4,0.4h0.6v1.1
			h-3.9V74.2z"/>
	</g>
</g>
</svg>
